<svg id="Dami치n_De_Lio" data-name="Dami치n De Lio" xmlns="http://www.w3.org/2000/svg" viewBox="0 0 296.67 235.14"><title>Untitled-1</title><g id="Dami치n_De_Lio-2" data-name="Dami치n De Lio"><path d="M405.33,382.08h24.32q9.44,0,14.16,5.24t4.82,15.49l.21,41.25q.11,13-4.52,19.6T429,470.22H405.33Zm20.83,72.55c3.22,0,4.82-1.58,4.82-4.72V404.45a16,16,0,0,0-.46-4.46,3,3,0,0,0-1.69-2,10.52,10.52,0,0,0-3.8-.52h-1.95v57.16Z" transform="translate(-405.33 -369.46)"/><path d="M457.3,465.25q-3.23-5.81-3.23-16.58,0-8.82,2.31-13.54a15.21,15.21,0,0,1,6.41-6.93,78.26,78.26,0,0,1,12.52-4.87l4.93-1.64V414a7.6,7.6,0,0,0-1.18-4.56,3.46,3.46,0,0,0-2.83-1.59,3.17,3.17,0,0,0-2.51,1.33,5.55,5.55,0,0,0-1.08,3.59v4.52H455.2v-2.47q0-11.07,5.18-15.8t16.88-4.72q9.33,0,15.19,4.88T498.3,413v57.25H480.44V461.3a14.73,14.73,0,0,1-4.26,7.18,10.15,10.15,0,0,1-6.92,2.56Q460.53,471,457.3,465.25Zm22-9.85a9,9,0,0,0,.87-4.16V430.31a13.64,13.64,0,0,0-5.9,3.9,10.23,10.23,0,0,0-1.89,6.56v9.65q0,6.68,4,6.67A3,3,0,0,0,479.26,455.4Z" transform="translate(-405.33 -369.46)"/><path d="M505.17,395.11h17.54v8.73a13,13,0,0,1,4.21-7.19c2-1.57,4.79-2.36,8.41-2.36a14.28,14.28,0,0,1,7.65,2,11,11,0,0,1,4.57,5.49,16.36,16.36,0,0,1,5-5.69,14.08,14.08,0,0,1,7.7-1.8q8.82,0,12.26,5.39T576,415.33l-.21,54.89H557.7V415q0-7.29-3.69-7.29a3.81,3.81,0,0,0-3.69,2.52,14.47,14.47,0,0,0-1.13,6v54h-18V415a16.06,16.06,0,0,0-.67-5.13,2.7,2.7,0,0,0-2.82-1.95,4,4,0,0,0-3.9,2.72,17,17,0,0,0-1.13,6.51v53.05H505.17Z" transform="translate(-405.33 -369.46)"/><path d="M582.84,390.09V377.57h18v12.52Zm0,80.13V395.11h18v75.11Z" transform="translate(-405.33 -369.46)"/><path d="M609.57,465.25q-3.23-5.81-3.23-16.58,0-8.82,2.31-13.54a15.15,15.15,0,0,1,6.41-6.93,78.26,78.26,0,0,1,12.52-4.87l4.92-1.64V414a7.53,7.53,0,0,0-1.18-4.56,3.43,3.43,0,0,0-2.82-1.59,3.15,3.15,0,0,0-2.51,1.33,5.55,5.55,0,0,0-1.08,3.59v4.52H607.47v-2.47q0-11.07,5.18-15.8t16.88-4.72q9.33,0,15.18,4.88t5.85,13.8v57.25H632.71V461.3a14.73,14.73,0,0,1-4.26,7.18,10.15,10.15,0,0,1-6.92,2.56Q612.8,471,609.57,465.25Zm7.95-73.62V380.44l23.81-11V386.9Zm14,63.77a9,9,0,0,0,.87-4.16V430.31a13.58,13.58,0,0,0-5.9,3.9,10.23,10.23,0,0,0-1.9,6.56v9.65c0,4.45,1.34,6.67,4,6.67A3,3,0,0,0,631.53,455.4Z" transform="translate(-405.33 -369.46)"/><path d="M657.44,395.11h17.95v9.55a16,16,0,0,1,3.9-7.49,9.78,9.78,0,0,1,7.39-2.88q7.59,0,11.24,4.67t3.64,13.29v58H683.91V414.1a8.48,8.48,0,0,0-1-4.21,3.22,3.22,0,0,0-3-1.74,3.49,3.49,0,0,0-3.64,2.51,20.83,20.83,0,0,0-.88,6.72v52.84H657.44Z" transform="translate(-405.33 -369.46)"/><path d="M405.33,492h30.79q11.94,0,17.92,6.63t6.11,19.61l.26,52.22q.12,16.5-5.72,24.81t-19.35,8.31h-30Zm26.37,91.84q6.1,0,6.11-6V520.3a20.36,20.36,0,0,0-.59-5.65,3.75,3.75,0,0,0-2.14-2.53,13.35,13.35,0,0,0-4.81-.65H427.8v72.35Z" transform="translate(-405.33 -369.46)"/><path d="M474.56,596.55q-6.36-8.06-6.36-24V534.33q0-13.12,7.53-20t21-6.89q27.4,0,27.4,26.89v6.88q0,10.39-.26,16.89h-33v18.44a22.94,22.94,0,0,0,1,7.73q1,2.81,4.42,2.8a4.22,4.22,0,0,0,3.7-1.56,7.34,7.34,0,0,0,1.3-3.57q.19-2,.19-5.92V566.8h22.6v5.46q0,16.62-6.43,24.48t-22.14,7.86Q480.92,604.6,474.56,596.55Zm27-49.75V534.59q0-10.26-5.06-10.26-5.73,0-5.72,10.26V546.8Z" transform="translate(-405.33 -369.46)"/><path d="M563.15,603.56V492h22.34V584.6h23v19Z" transform="translate(-405.33 -369.46)"/><path d="M614.19,502.12V486.27h22.73v15.85Zm0,101.44V508.48h22.73v95.08Z" transform="translate(-405.33 -369.46)"/><path d="M645.11,575.12V536.93q0-13.51,7.6-21.5t20.84-8q13.26,0,20.85,8t7.6,21.5v38.19q0,29.48-28.45,29.48T645.11,575.12Zm32.47,10a9.57,9.57,0,0,0,1.3-5.33v-46.5q0-8.31-5.33-8.31t-5.32,8.31v46.5a9.49,9.49,0,0,0,1.3,5.33,5.13,5.13,0,0,0,8.05,0Z" transform="translate(-405.33 -369.46)"/></g></svg>